HIERARCHY
ROOT joint_Root
{
	OFFSET 0.0 0.0 0.0
	CHANNELS 6 Xposition Yposition Zposition Zrotation Xrotation Yrotation 
	JOINT Hips
	{
		OFFSET 4.5925 91.4895 -427.239
		CHANNELS 6 Xposition Yposition Zposition Zrotation Xrotation Yrotation 
		JOINT Spine
		{
			OFFSET 15.7357 0.0 0.0
			CHANNELS 6 Xposition Yposition Zposition Zrotation Xrotation Yrotation 
			JOINT Chest
			{
				OFFSET 8.98455 -0.406207 0.0
				CHANNELS 6 Xposition Yposition Zposition Zrotation Xrotation Yrotation 
				JOINT Neck
				{
					OFFSET 16.3773 0.0 0.0
					CHANNELS 6 Xposition Yposition Zposition Zrotation Xrotation Yrotation 
					JOINT Head
					{
						OFFSET 6.45672 0.0 0.0
						CHANNELS 6 Xposition Yposition Zposition Zrotation Xrotation Yrotation 
						End Site
						{
							OFFSET 0.0 0.0 0.0
						}
					}
				}
				JOINT Shoulder_L
				{
					OFFSET 12.9942 -0.242716 4.98039
					CHANNELS 6 Xposition Yposition Zposition Zrotation Xrotation Yrotation 
					JOINT UpperArm_L
					{
						OFFSET 5.34809 0.0 0.0
						CHANNELS 6 Xposition Yposition Zposition Zrotation Xrotation Yrotation 
						JOINT LowerArm_L
						{
							OFFSET 24.3286 1.87007e-05 0.0
							CHANNELS 6 Xposition Yposition Zposition Zrotation Xrotation Yrotation 
							JOINT Hand_L
							{
								OFFSET 22.2916 0.0 0.0
								CHANNELS 6 Xposition Yposition Zposition Zrotation Xrotation Yrotation 
								End Site
								{
									OFFSET 0.0 0.0 0.0
								}
							}
						}
					}
				}
				JOINT Shoulder_R
				{
					OFFSET 12.9945 -0.242716 -4.98039
					CHANNELS 6 Xposition Yposition Zposition Zrotation Xrotation Yrotation 
					JOINT UpperArm_R
					{
						OFFSET -5.34813 0.0 0.0
						CHANNELS 6 Xposition Yposition Zposition Zrotation Xrotation Yrotation 
						JOINT LowerArm_R
						{
							OFFSET -24.3289 0.000322201 0.0
							CHANNELS 6 Xposition Yposition Zposition Zrotation Xrotation Yrotation 
							JOINT Hand_R
							{
								OFFSET -22.2915 -0.000108084 0.0
								CHANNELS 6 Xposition Yposition Zposition Zrotation Xrotation Yrotation 
								End Site
								{
									OFFSET 0.0 0.0 0.0
								}
							}
						}
					}
				}
			}
		}
		JOINT UpperLeg_L
		{
			OFFSET -2.19248 -6.46944 0.0
			CHANNELS 6 Xposition Yposition Zposition Zrotation Xrotation Yrotation 
			JOINT LowerLeg_L
			{
				OFFSET 39.0811 0.0 -1.23785e-05
				CHANNELS 6 Xposition Yposition Zposition Zrotation Xrotation Yrotation 
				JOINT Foot_L
				{
					OFFSET 40.9854 0.0 -1.26872e-05
					CHANNELS 6 Xposition Yposition Zposition Zrotation Xrotation Yrotation 
					JOINT Toes_L
					{
						OFFSET 11.7543 0.0 0.0
						CHANNELS 6 Xposition Yposition Zposition Zrotation Xrotation Yrotation 
						End Site
						{
							OFFSET 0.0 0.0 0.0
						}
					}
				}
			}
		}
		JOINT UpperLeg_R
		{
			OFFSET -2.19251 6.46944 0.0
			CHANNELS 6 Xposition Yposition Zposition Zrotation Xrotation Yrotation 
			JOINT LowerLeg_R
			{
				OFFSET -39.0811 -0.00228153 -0.0401928
				CHANNELS 6 Xposition Yposition Zposition Zrotation Xrotation Yrotation 
				JOINT Foot_R
				{
					OFFSET -40.9854 0.0 0.0
					CHANNELS 6 Xposition Yposition Zposition Zrotation Xrotation Yrotation 
					JOINT Toes_R
					{
						OFFSET -11.7543 0.0 0.0
						CHANNELS 6 Xposition Yposition Zposition Zrotation Xrotation Yrotation 
						End Site
						{
							OFFSET 0.0 0.0 0.0
						}
					}
				}
			}
		}
	}
}
MOTION
Frames:	5
Frame Time:	0.0333333
0.000000 0.000000 0.000000 0.000000 0.000000 -0.000000 120.592000 88.774200 -81.550100 84.181000 -9.077550 0.621100 15.735700 0.000005 -0.000001 75.735700 83.764300 -75.501300 8.984550 -0.406207 -0.000000 4.332260 -3.074880 0.584768 16.377300 -0.000001 -0.000001 -1.829040 -5.968880 -0.668123 6.456720 -0.000001 -0.000000 -6.462540 -5.696720 -2.358280 12.994200 -0.242716 4.980390 -90.945700 3.256610 -73.797900 5.348090 -0.000007 -0.000001 -57.792400 28.339000 -24.748300 24.328600 0.000019 0.000005 8.595080 21.963100 -22.005600 22.291600 -0.000001 0.000005 13.620600 5.213570 2.376140 12.994500 -0.242716 -4.980390 88.084000 8.616470 -77.412800 -5.348130 -0.000001 -0.000004 -65.846300 28.322400 -7.059860 -24.328900 0.000322 -0.000009 0.403895 0.911818 -24.004200 -22.291500 -0.000108 -0.000004 17.632500 5.420550 -3.615720 -2.192480 -6.469440 -0.000000 -179.235000 -14.542000 -3.876790 39.081100 -0.000007 -0.000012 0.048890 -0.064747 37.055700 40.985400 -0.000006 -0.000013 7.946640 -5.505460 -78.528500 11.754300 -0.000000 0.000003 -0.309671 -0.376302 -16.398300 -2.192510 6.469440 -0.000001 176.876000 4.663660 163.031000 -39.081100 -0.002282 -0.040193 0.051433 -0.018633 68.906900 -40.985400 0.000008 0.000006 -0.745449 3.639520 -54.467700 -11.754300 -0.000006 -0.000006 -0.022616 -0.181371 -23.988500
0.000000 0.000000 0.000000 0.000000 0.000000 -0.000000 120.842000 89.479400 -79.144100 84.321100 -5.866980 -0.317128 15.735700 0.000005 -0.000001 71.500700 83.967200 -71.141500 8.984550 -0.406207 -0.000000 3.695160 -3.836060 0.841599 16.377300 -0.000001 -0.000001 -1.921480 -6.539820 -0.857543 6.456720 -0.000001 -0.000000 -6.746610 -5.946330 -3.675480 12.994200 -0.242716 4.980390 -90.774100 2.772410 -74.394400 5.348090 -0.000007 -0.000001 -57.253900 27.514700 -27.696400 24.328600 0.000019 0.000005 9.047030 20.124900 -24.834900 22.291600 -0.000001 0.000005 14.844600 5.215590 2.325930 12.994500 -0.242716 -4.980390 88.072600 8.424120 -77.063100 -5.348130 -0.000001 -0.000004 -66.378000 27.080400 -4.514100 -24.328900 0.000322 -0.000009 1.034170 2.769940 -20.515700 -22.291500 -0.000108 -0.000004 16.473400 5.396710 -2.828880 -2.192480 -6.469440 -0.000000 -178.918000 -13.533000 -2.554810 39.081100 -0.000007 -0.000012 0.036156 -0.051812 34.908200 40.985400 -0.000006 -0.000013 7.897440 -2.556720 -76.231500 11.754300 -0.000000 0.000003 -0.003058 -0.041258 -18.254700 -2.192510 6.469440 -0.000001 179.547000 4.302090 159.984000 -39.081100 -0.002282 -0.040193 0.005532 -0.001052 66.118300 -40.985400 0.000008 0.000006 3.931290 -0.512676 -58.339300 -11.754300 -0.000006 -0.000006 -0.021236 -0.174039 -23.686000
0.000000 0.000000 0.000000 0.000000 0.000000 -0.000000 121.050000 90.050900 -76.747300 84.479500 -2.768890 -1.331270 15.735700 0.000005 -0.000001 67.650800 84.125400 -67.173800 8.984550 -0.406207 -0.000000 3.127900 -4.482280 1.075820 16.377300 -0.000001 -0.000001 -2.171790 -6.870160 -1.045510 6.456720 -0.000001 -0.000000 -7.088170 -6.216930 -4.168310 12.994200 -0.242716 4.980390 -90.586300 2.138730 -74.666400 5.348090 -0.000007 -0.000001 -56.785100 27.523300 -30.363300 24.328600 0.000019 0.000005 9.208830 17.591000 -28.213400 22.291600 -0.000001 0.000005 15.162300 5.229260 1.974420 12.994500 -0.242716 -4.980390 88.113700 8.177080 -76.963100 -5.348130 -0.000001 -0.000004 -67.187000 25.790500 -1.702710 -24.328900 0.000322 -0.000009 1.275830 4.011820 -17.674100 -22.291500 -0.000108 -0.000004 15.570400 5.376100 -2.174260 -2.192480 -6.469440 -0.000000 -178.310000 -13.335300 -1.434170 39.081100 -0.000007 -0.000012 0.029010 -0.044614 33.032700 40.985400 -0.000006 -0.000013 8.377730 0.976662 -73.892900 11.754300 -0.000000 0.000003 -0.011454 -0.114212 -21.232100 -2.192510 6.469440 -0.000001 -178.019000 4.140700 157.224000 -39.081100 -0.002282 -0.040193 -0.011591 0.008215 60.942700 -40.985400 0.000008 0.000006 6.047070 -3.584410 -61.179500 -11.754300 -0.000006 -0.000006 -0.020433 -0.169674 -23.506100
0.000000 0.000000 0.000000 0.000000 0.000000 -0.000000 121.207000 90.422700 -74.244300 84.768800 0.524077 -2.339580 15.735700 0.000005 -0.000001 63.264600 84.242100 -62.668700 8.984550 -0.406207 -0.000000 2.555650 -5.203390 1.307390 16.377300 -0.000001 -0.000001 -2.485250 -7.161200 -1.146750 6.456720 -0.000001 -0.000000 -7.496210 -6.458770 -4.273480 12.994200 -0.242716 4.980390 -90.465000 1.723430 -74.898600 5.348090 -0.000007 -0.000001 -56.135200 28.097400 -32.292900 24.328600 0.000019 0.000005 9.699850 15.591000 -32.457700 22.291600 -0.000001 0.000005 14.989300 5.246070 1.536450 12.994500 -0.242716 -4.980390 88.149600 7.936940 -76.831400 -5.348130 -0.000001 -0.000004 -68.038100 24.688600 1.220270 -24.328900 0.000322 -0.000009 1.305530 4.710660 -15.522500 -22.291500 -0.000108 -0.000004 14.662800 5.358630 -1.636420 -2.192480 -6.469440 -0.000000 -177.733000 -12.670200 -0.483269 39.081100 -0.000007 -0.000012 0.023029 -0.037513 31.544400 40.985400 -0.000006 -0.000013 8.334250 4.216660 -71.947500 11.754300 -0.000000 0.000003 -0.021879 -0.177495 -23.832400 -2.192510 6.469440 -0.000001 -175.932000 5.246820 154.817000 -39.081100 -0.002282 -0.040193 -0.007326 0.007648 54.077700 -40.985400 0.000008 0.000006 6.131140 -4.218560 -62.695000 -11.754300 -0.000006 -0.000006 -0.021471 -0.175303 -23.738200
0.000000 0.000000 0.000000 0.000000 0.000000 -0.000000 121.368000 90.494900 -71.593800 85.293100 3.724350 -3.258520 15.735700 0.000005 -0.000001 59.192900 84.293900 -58.497400 8.984550 -0.406207 -0.000000 2.082600 -5.875310 1.497560 16.377300 -0.000001 -0.000001 -2.995160 -7.542080 -1.111460 6.456720 -0.000001 -0.000000 -7.793820 -6.648650 -4.181950 12.994200 -0.242716 4.980390 -90.398100 1.501450 -75.148000 5.348090 -0.000007 -0.000001 -55.526900 29.029700 -33.421600 24.328600 0.000019 0.000005 10.810900 14.414100 -37.492100 22.291600 -0.000001 0.000005 15.078500 5.256980 1.247570 12.994500 -0.242716 -4.980390 88.194800 7.632580 -76.650900 -5.348130 -0.000001 -0.000004 -68.822000 23.526700 3.912240 -24.328900 0.000322 -0.000009 1.366560 5.464370 -14.075300 -22.291500 -0.000108 -0.000004 13.657300 5.346860 -1.282080 -2.192480 -6.469440 -0.000000 -177.546000 -11.116700 0.333030 39.081100 -0.000007 -0.000012 0.020098 -0.033959 30.617300 40.985400 -0.000006 -0.000013 8.113450 6.184910 -70.321200 11.754300 -0.000000 0.000003 -0.035628 -0.242203 -26.514500 -2.192510 6.469440 -0.000001 -173.928000 7.634850 152.638000 -39.081100 -0.002282 -0.040193 -0.000202 0.003269 46.640600 -40.985400 0.000008 0.000006 5.850610 -2.562660 -63.458900 -11.754300 -0.000006 -0.000006 -0.021911 -0.177654 -23.835100
